<?xml version="1.0" encoding="utf-8"?>
<!-- Generator: Adobe Illustrator 25.0.0, SVG Export Plug-In . SVG Version: 6.00 Build 0)  -->
<svg version="1.1" id="Layer_1" xmlns="http://www.w3.org/2000/svg" xmlns:xlink="http://www.w3.org/1999/xlink" x="0px" y="0px"
	 viewBox="0 0 1200 1200" style="enable-background:new 0 0 1200 1200;" xml:space="preserve">
<style type="text/css">
	.st0{fill:#86C6A8;}
	.st1{clip-path:url(#SVGID_2_);fill:none;stroke:#86C6A8;stroke-width:5;stroke-miterlimit:10;}
	.st2{clip-path:url(#SVGID_2_);fill:#86C6A8;stroke:#86C6A8;stroke-width:0.25;stroke-miterlimit:10;}
	.st3{clip-path:url(#SVGID_2_);fill:none;stroke:#86C6A8;stroke-width:5;}
</style>
<g>
	<path class="st0" d="M424.5,969.7v15.5h-53v-5.6h11.4V954h-11.4v-5.6h29.8v5.6h-11.4v25.6h28.2v-9.8H424.5z"/>
	<path class="st0" d="M485.3,962.8V954h-34.1v10.3h16.1v-5.2h5.7v15.6h-5.7v-5.2h-16.1v10h34.1v-8.8h6.3v14.5h-58.8v-5.6h11.3V954
		h-11.3v-5.6h58.8v14.5H485.3z"/>
	<path class="st0" d="M516.7,983.5c-4.4-1.6-7.8-3.9-10.3-6.8c-2.5-2.9-3.7-6.2-3.7-9.9c0-3.7,1.2-7,3.7-9.9
		c2.5-2.9,5.9-5.2,10.3-6.8c4.4-1.6,9.3-2.4,14.9-2.4c5.5,0,10.4,0.8,14.8,2.4c4.4,1.6,7.8,3.9,10.3,6.8c2.5,2.9,3.7,6.2,3.7,9.9
		c0,3.7-1.2,7-3.7,9.9c-2.5,2.9-5.9,5.2-10.3,6.8c-4.4,1.6-9.3,2.4-14.8,2.4C526,985.9,521.1,985.1,516.7,983.5z M542.8,978.4
		c3.2-1.1,5.7-2.7,7.5-4.7c1.8-2,2.6-4.3,2.6-6.9c0-2.7-0.9-5-2.6-7c-1.8-2-4.3-3.6-7.5-4.7c-3.2-1.1-7-1.7-11.3-1.7
		c-4.3,0-8.1,0.6-11.3,1.7c-3.2,1.1-5.7,2.7-7.5,4.8c-1.8,2-2.6,4.3-2.6,6.9c0,2.6,0.9,4.9,2.6,7c1.7,2,4.2,3.6,7.5,4.7
		c3.2,1.1,7,1.7,11.3,1.7C535.8,980.1,539.5,979.5,542.8,978.4z"/>
	<path class="st0" d="M641.8,954h-11.4v31.6l-3.7,0.1l-41-28.5v22.5h12.1v5.6h-30.4v-5.6h11.4V954h-11.4v-5.6h18.3l38.1,26.7V954
		h-11.3v-5.6h29.3V954z"/>
	<path class="st0" d="M730.6,948.3v14.5h-6.3V954h-33v10.7H707v-5.2h5.7v15.7H707V970h-15.6v9.6h12.1v5.6h-30.5v-5.6h11.4V954h-11.4
		v-5.6H730.6z"/>
	<path class="st0" d="M735.1,984.8c-1-0.8-1.6-1.7-1.6-2.9c0-1.2,0.5-2.2,1.5-3s2.4-1.1,4.1-1.1c1.7,0,3.1,0.4,4.1,1.1
		c1,0.7,1.5,1.7,1.5,3c0,1.2-0.5,2.2-1.5,2.9c-1,0.7-2.4,1.1-4.1,1.1C737.5,985.9,736.2,985.5,735.1,984.8z"/>
	<path class="st0" d="M807.2,976.3c-3.2,2.8-7.1,5.1-11.7,6.9c-4.6,1.8-9.9,2.7-16.1,2.7c-5.1,0-9.7-0.8-13.8-2.3
		c-4.1-1.5-7.3-3.7-9.7-6.6c-2.4-2.9-3.6-6.3-3.6-10.2c0-4,1.2-7.4,3.5-10.3c2.4-2.9,5.6-5.1,9.6-6.7c4-1.5,8.5-2.3,13.4-2.3
		c4.3,0,8.2,0.7,11.9,2c3.7,1.3,6.9,3.2,9.7,5.6v-6.8h6.3l0.1,13.3l-4.6,0.9c-5.7-6.2-13.5-9.4-23.3-9.4c-3.8,0-7.1,0.6-10,1.7
		c-2.9,1.2-5.1,2.8-6.7,4.8s-2.4,4.4-2.4,7c0,2.7,0.9,5,2.6,7c1.8,2,4.1,3.6,7.1,4.7c3,1.1,6.3,1.6,9.9,1.6c9.8,0,17.9-2.9,24.5-8.8
		L807.2,976.3z"/>
	<path class="st0" d="M818,984.8c-1-0.8-1.6-1.7-1.6-2.9c0-1.2,0.5-2.2,1.5-3s2.4-1.1,4.1-1.1c1.7,0,3.1,0.4,4.1,1.1
		c1,0.7,1.5,1.7,1.5,3c0,1.2-0.5,2.2-1.5,2.9c-1,0.7-2.4,1.1-4.1,1.1C820.4,985.9,819.1,985.5,818,984.8z"/>
</g>
<g>
	<defs>
		<rect id="SVGID_1_" x="-0.6" width="1200.7" height="1200.7"/>
	</defs>
	<clipPath id="SVGID_2_">
		<use xlink:href="#SVGID_1_"  style="overflow:visible;"/>
	</clipPath>
	<path class="st1" d="M666.6,345.2c0,0,4.2,18.1,19.8,28.4c15.5,10.2,37.5,10.2,37.5,10.2s-7.4-20.8-19.3-29
		C690.5,344.8,666.6,345.2,666.6,345.2z M578.7,460.3c0,0,4.3,1,15.8-3.9c11.5-5,26.8-12.3,36.4-16.9c9.6-4.6,29-27.1,30.7-25.4
		s-22.5,42.7-22.5,57c0,14.3,0,35.4,12.9,37.3c12.9,1.9,29.5-26.8,34.4-42.9c5-16.1,2.7-40.5,2.7-40.5s-0.8,46.1,3,54.6
		c3.8,8.5,6.2,16.9,12.5,16.9c16.4,0,25.5-16.9,25.5-16.9 M744.9,345.9c0,0-5.1-15.6-26.3-21.1c-11.4-2.9-12.6-2.4-21.8-2.4
		c-15.4,0-17.8,1.2-25.6,4.7c-7.8,3.5-24.5,17.2-28.9,25.9c-4.4,8.7-8.1,25.3-3.2,35.7c2.9,6.1,11.2,17.1,22.5,25.4
		c8,5.9,17.5,10.4,27.5,10.9c24.3,1.2,46.8-2.8,48.3,2.4 M311.7,474.3c0,0-14.7,14.9-18.4,32.1c-3.7,17.1-9.7,46.5,0,63.5
		c5.9,10.4,22.8,27,34.9,38.3c2.8,2.6,0.1,7.2-3.5,6.1c-10.3-3.3-21.9-6-24.7-2.8c-5.1,6.2,14.9,71.6,14.9,90.2
		c0,18.6,9.5,126.8,20.7,126.8c11.2,0,7.2-23,18.1-23c10.9,0-1.7,30,8.6,29.2c10.2-0.8,10.8-28.1,22-26.5c20,2.8,0.4,31.2,10.4,35.5
		c12.4,5.3,31.9-32.6,29.8-48.6c-2.1-16-16.9-32.2-34.9-36.7c-18-4.5-29.9-5.4-35.9-18.8c-6-13.4-5.4-24.6,0-38.8
		c5.4-14.2,9-26,30.9-35.6c21.9-9.7,17.2-7.4,17.2,0.3s-14.4,49.5-7.2,56.7c7.2,7.2,15.7,12.6,26.1,12.6c10.4,0,14.4,2.1,29.8,5.2
		c15.4,3.1,19.4,24.4,19.4,42.2c0,17.8-10.3,50-6.4,52.3c3.9,2.3,17.8-11.7,24.2-24.3c2.4-4.6,8.3-9.8,10.6,0.3
		c0,0-6.7,30.9,2.7,33.1c8.6,2,22.9-36.5,22.9-36.5c2.7-3.9,9-8.1,10.5,0.9c2.4,14.1-11,31.8-8.1,34.7c2.9,2.9,25-2.9,31.1-39.7
		c5.7-34.4,2.7-41.3-11.5-60c-14.2-18.7-96-22.7-99.5-36.9c-3.5-14.2,13-40.9,13-40.9s18.6,12.8,41,5.6c22.4-7.2,49.7-20,60-30.3
		c10.3-10.3,26.2-28.9,36.2-26.1c9.9,2.8,1.5,10.4-3.7,25.3c-5.2,14.9-24.8,66.6-22.4,87.4c2.4,20.7,11.9,35.2,30.7,41.6
		c18.8,6.4,35.4,16,32.2,28.1c-3.2,12.1-21.1,39.8-18.5,42.4c2.6,2.6,25.6-24,33.6-17.1c8,6.8-20.6,33.9-17.4,35.9
		c26,16.2,35.6-35.3,40.1-32.6c10.8,6.7-0.2,36.6,5.5,38c6,1.5,24.4-44.7,12.4-73.8c-12-29.1-43.8-40.8-43.8-54.7
		c0-13.9,12.1-50.7,12.1-50.7s3.4,28,15.1,39.7c11.7,11.7,38.3,32.2,42.7,44.1c4.4,11.9,2,53.8-4.6,71.2c-4.2,11.2,10.6-5.7,19-14.6
		c2.8-2.9,9.7-6.1,9.3-2.1c-1.2,6.1-11.1,26-5.8,28.1c0,0,12.7,0.3,21.2-20.6c2.8-6.8,4.6-12.8,5.9-17.9c0.9-3.7,6.1-3.6,7,0.1
		c2.1,9.3,4.2,20.2,4.2,27c0,13.8,8.8,4.5,15-4.5s8.5-38.3,3.3-58.5c-5.2-20.2-13.3-46.5-35.4-52.3c-22-5.8-40.9-0.7-46.7-15.2
		c-5.8-14.5-2.4-21.1,3-39.8c5.4-18.8,19-21.8,17.1-55.2c-1.9-33.4-12.5-41.4-12.5-65.4c0-24,16.7-74,16.7-74l3.7-45.4
		c0.2-1.9,2.7-2.5,3.7-0.8c2.8,4.9,7,11.6,10.2,14.8c5.3,5.3,51.2,6.9,60.4-2.3c9.2-9.2-19.8-13.4-23.4-18.7
		c-2.8-4.2-8.9-9.3-11.2-12.1c-1.1-1.4,0.3-3.2,1.9-2.6c4.2,1.8,16.4,6.7,21.4,7.6c10.6,1.7,39.9-21.5,37.3-35.8
		c-2.6-14.3-17.2-26.3-35.1-20.1c-17.9,6.3-19.1,15.2-29.4,11.9c-10.3-3.4-25.5-19.1-26.6-24.8s11.7-28,11.7-55.2
		c0-21,4.2-46.9-11.7-57.5c-5.9-4-17.9-2.8-22.2,2.9c-4.5,6-8.6,18.5-8.6,38.1c0,14.5,0.3,34.5,3.2,45.7c1.2,4.9-2.7,2.7-5.2,2.4
		l-10.7-1.3c-2.6-0.3-6.1,1.3-4.2-3.4c2.7-6.8,2-21.5,2-31.8c0-14.4-8.2-53.8-25.2-63.5c-16.5-9.4-29.8-1.9-32,7.5
		c-2.4,10.3-5.5,26.8,3.3,48.8c4.7,11.9,21.7,38.2,25.8,48.4l-7.8,3.5c-11.2-12.5-40.1-38.6-54.4-48.7
		c-14.8-10.5-45.2-18.5-51.4-3.3c-6.2,15.2,0.5,34.7,12.4,43.7c15.3,11.6,72.4,30.6,72.4,30.6s-57-11.5-72.4-14.8
		c-15.6-3.4-25.7,0-32.2,7.7c-10.6,12.5-7.6,30.9,13.6,40.3c17.3,7.6,46,9.1,57.7,9.1s30.2-6.6,30.2-6.6s-39.4,20.3-50.7,28.2
		c-9.9,6.9-16.8,12-19.8,23.1c-3,11,10.2,20.3,10.2,20.3s9.5,13.2-21.3,21.2c-30.8,8.1-55.7,1.7-70.5-13.1
		c-14.8-14.8-56.2-52.4-75.4-52.4c-19.1,0-42.9,4.3-56.4,17.8C341.7,447.4,311.7,474.3,311.7,474.3z M315.1,460.3
		c0,0,4.9-50.8,0.2-81.4c-9.8-62.8-85.7-94.8-85.7-94.8s54.9-4.6,67.3,10.6c12.4,15.3-0.1-32.2-23.7-35.9
		c-23.7-3.8-45.4-5.4-45.4-5.4s34-24.6,64.2-11.6c13.6,5.8,22.3,13.3,27.8,19.7c1.5,1.7,4.2,0.1,3.4-2
		c-4.3-11.8-16.5-31.2-23.8-39.8c12.5,0.6,32.2,12.9,38.1,28.6c6.4,17.2,8.3,30,8.5,38.5c0.1,2.3,3.2,3,4.2,0.8l11.1-24.9
		c0,0,11.3,22.8,8.8,38.1c-1.2,7.2-1.7,15.7-2,22.5c-0.1,4,5.1,5.8,7.4,2.4l13.5-19.7c0,0,9.3,50,0,80.1
		C379.8,416.3,315.1,460.3,315.1,460.3z M854.3,850.8c0,0,15.6-17.6,30.2-21.3c14.6-3.7,38-4.9,38-4.9s-7.1,19.6-25,29.9
		c-19,11-37.3,11.3-43.2,0.5C852.9,853,854.3,850.8,854.3,850.8z"/>
	<path class="st2" d="M699,351.8c0,0-6.5,0.3-10.8,4.8s-0.8,16.5-0.8,16.5s6.1-3.3,10.3-2.3c6.2,1.5,10.5-6.6,10.5-9.2
		C708.3,359,699,351.8,699,351.8"/>
	<path class="st1" d="M852.5,853.5c0,0,7-30-0.8-45.1c-9.6-18.8-40.7-41-40.7-41s-9.2,25.1,5,45.3c14.2,20.2,30,39,32.8,37.8
		c2.8-1.2-37.4-83-37.4-83 M877.8,794.9c0,0-31.9-11.5-44.7-26.8c-12.9-15.2-5.3-37.3-5.3-37.3s28.8,4.1,35.7,18.5
		c6.9,14.4,14.3,27.5,14.3,36.6c0,9-50.3-55.4-50.3-55.4 M816.3,692.6c0,0,9.1,18.2,18.1,24.4c8.4,5.7,24.4,7.5,33.4,8.1
		c1.9,0.1,2.7-2.3,1.1-3.4c-9.1-5.9-18.5-20.5-26-24.6C836.8,693.8,816.3,692.6,816.3,692.6z M877.8,794.9c0,0,12.5-19.8,33.9-29.5
		c21.4-9.7,50.3-17.9,50.3-17.9s-4.1,25.4-15.4,36.7c-11.3,11.3-23.2,23-37,24.9c-13.8,1.9-32.3-3.3-32.3-6.4
		c0-3,32.5-14.3,41.7-20.5c9.2-6.2,42.6-34.8,42.6-34.8 M877.8,754.6c0,0,29.3-39.2,41.4-49.9c19.3-17.2,56.2-24.1,56.2-24.1
		s-6.3,18.3-14.9,32.3c-17.8,28.9-72,44.2-78.1,44.2s93.1-76.6,93.1-76.6 M873.5,722.5c-2-2,12.3-37.5,33.4-53.5
		c21-16,32.8-19.4,32.8-19.4s-7.5,24.5-24.3,41.2C898.5,707.5,875.5,724.5,873.5,722.5z M874.7,620.5c0,0-9,6.9-5.9,23.3
		c2.1,10.9,12,12.6,9.5,25.9c-2.5,13.3-19.1,21.6-11.8,43.1c6,17.9,15.3,43.3,12.3,75.6c-3.1,32.3-39.4,80.4-39.4,80.4 M871.1,556.2
		c0,0-21-0.8-19.1,13.1c0.8,5.6,6.1,10.7,16.8,10.7c15.7,0,18.9-3.7,18.9-11.9C887.8,559.5,871.1,556.2,871.1,556.2z M848.5,561.5
		c0,0,4.5-12.2-10.3-29.1c-14.7-16.9-43.4-32.2-43.4-32.2s-12.6,31.4,17.5,48.5C826.3,556.6,848.5,561.5,848.5,561.5z M844.7,567.1
		c0,0-9.9-14.5-32.4-18.5c-22.5-4-53.8-0.4-53.8-0.4s11.7,23.2,35.2,23.2C817.3,571.5,844.7,567.1,844.7,567.1z M860.2,580.5
		c0,0-19-6.5-38.5-3.2c-19.6,3.3-50.2,25.4-50.2,25.4s38.3,11.5,49.2,9.8C831.6,610.8,854.3,600.2,860.2,580.5z M860.2,593.3
		c0,0-12,9.6-17.3,27.2c-5.3,17.5-4.7,41-4.7,41s14.7-11.1,24-29.3c9.4-18.2,9-15.6,6.6-24C866.5,599.8,860.2,593.3,860.2,593.3z
		 M872.6,588.6c0,0-9.6,10.7,2.2,31.9c11.7,21.2,25.6,32.8,25.6,32.8s5.5-29.6-0.4-35.5C894.1,611.9,887.7,593.5,872.6,588.6z
		 M882.4,585.6c0,0,10.8,17.5,29.3,25.2c18.5,7.7,59.5,0,59.5,0S948.9,588,927.9,584C906.9,579.9,882.4,585.6,882.4,585.6z
		 M893.2,567.3c-2.2,1.1-2.1,4.3,0.1,5.3c4.8,2.1,12.8,4.8,23.5,4.8c17.9,0,47.3-6.8,47.3-6.8s-13.8-14.4-33.1-14.4
		C917,556.2,901,563.3,893.2,567.3z M878.8,554.4c0,0,9.5,9.3,32.9,1.8c49.2-15.8,65-52.3,65-52.3s-40.4,2.7-65,20.8
		C896.4,535.7,878.8,554.4,878.8,554.4z M866.5,548.3c0,0,9.3-24.2,24.9-39.7c15.6-15.6,42-23.9,42-23.9s-8.5,10.4-16.7,31.8
		C908.5,537.9,866.5,548.3,866.5,548.3z M836.2,475.6c0,0-11.2,17.9,0,36.3c11.2,18.4,17.2,33.1,17.2,42.5s15.9-20.8,11.6-42.5
		C860.6,490.2,836.2,475.6,836.2,475.6z M686.5,465.6c0,0-10.5,17.6-7.8,27.5c2.7,9.9,11,13,11,15.5c0,2.4-17,9.1-15.3,20.1
		c1.7,11,9.3,14,9.3,16.2c0,2.2-16.6,8.1-13.7,22.3c3,14.1,14.9,18.2,14.3,20.9c-0.7,3.1-11.8-0.7-16.6,11.7
		c-2.6,6.5,4.7,14.1,3.7,16.3c-0.8,1.8-15.5-0.1-20.1,12c-9,23.7,7.5,9.5,6.1,56.2 M631,439.5c0,0-18.8,27-22.1,46.6
		c-3.3,19.5,9.8,38.8,17.7,40.6c8,1.8-18.6,5.3-20.7,19.9c-2,14.6,16.4,24.1,27.5,24.1c11.2,0-12.2,3.7-19.2,13.4
		c-7,9.7-13.2,33.8-13.2,33.8 M577.7,471.3c0,0,6.6,7,4.3,15.7c-2.3,8.7-18.6,7.6-25.7,21.6c-7.2,14,10.7,22.4,10.7,32.3
		c0,9.9-17.7,18.8-20,31.8c-2.3,13,8.9,13.8,7.7,26c-1.2,12.3-24.5,19-25.7,27.3c-1.1,8.3,19.8,19.2,13.3,25.7 M540,484.6
		c0,0,4.5,4,0.3,13.5c-8.9,20-21.3,0.5-30.7,24.5c-9.3,24,11,28,4.7,44c-6.3,16-14,12.6-18.3,23.7c-4.3,11.1,11.2,26.1,5.9,34.3
		c-5.2,8.2-31.8,2.5-35.5,11.2c-3.7,8.7-6.9,29.5-6.9,29.5 M496,475.6c0,0-24.8,5.3-30.7,15.8c-13,22.9,6,38,6,44.3
		c0,6.3-16.5,9.2-22,26c-5.3,16.2,8.3,29.3,5.9,33.7c-1.9,3.5-19.6,1.1-29.9,17.3c-8.1,12.7-1,32.7-4.7,39.3
		c-3.7,6.7-18.7,13.6-18.7,13.6 M438.6,427.8c0,0-25.5,9.7-25.5,35.2c0,25.6,18.3,37.5,17.1,39.3c-1.2,1.8-32.4-6-36.7,15.5
		c-4.4,21.5,13.7,32.3,13.7,34.5c0,2.1-29.2,17.5-31.3,34.4c-2.2,16.8,20.7,29.7,20.7,33.3c0,3.7-17.8,10.9-17.8,24.7
		c0,13.8,6,20.6,6,20.6 M380.1,420c0,0-26.4,21.4-27.5,34.6c-1.1,13.2,18.6,32.3,18.6,36.1c0,3.8-19.5,7.8-29.4,30
		c-9.9,22.2,11.8,35.4,11.8,38.8c0,3.4-24,7.1-25.9,24.3c-1.9,17.2,3.1,21.7,0.4,24.3"/>
	<circle class="st3" cx="599.7" cy="600.3" r="597.6"/>
</g>
</svg>
